<svg width="440" height="805" viewBox="0 0 440 805" fill="none" xmlns="http://www.w3.org/2000/svg">
<g filter="url(#filter0_d)">
<path fill-rule="evenodd" clip-rule="evenodd" d="M94.2856 25C66.6714 25 44.2856 47.3858 44.2856 75V699.286C44.2856 726.9 66.6714 749.286 94.2856 749.286H345.714C373.328 749.286 395.714 726.9 395.714 699.286V75C395.714 47.3858 373.328 25 345.714 25H94.2856ZM94.2857 31C69.9852 31 50.2857 50.6995 50.2857 75V699.286C50.2857 723.586 69.9851 743.286 94.2856 743.286H346.571C370.872 743.286 390.571 723.586 390.571 699.286V75C390.571 50.6994 370.872 31 346.571 31H94.2857Z" fill="white"/>
<mask id="mask0" mask-type="alpha" maskUnits="userSpaceOnUse" x="61" y="41" width="318" height="691">
<path d="M65.5822 60.3077C61.9482 67.4959 61.9482 76.9058 61.9482 95.7256V677.562C61.9482 696.382 61.9482 705.792 65.5822 712.98C68.7788 719.303 73.8793 724.444 80.1529 727.666C87.285 731.328 96.6214 731.328 115.294 731.328H324.854C343.527 731.328 352.863 731.328 359.995 727.666C366.269 724.444 371.369 719.303 374.566 712.98C378.2 705.792 378.2 696.382 378.2 677.562V95.7256C378.2 76.9058 378.2 67.4959 374.566 60.3077C371.369 53.9848 366.269 48.8441 359.995 45.6224C352.863 41.9598 343.527 41.9598 324.854 41.9598H308.466C307.655 41.9598 307.249 41.9598 306.924 42.079C306.379 42.2789 305.95 42.7114 305.752 43.2605C305.633 43.588 305.633 43.997 305.633 44.815C305.633 51.3594 305.633 54.6316 304.687 57.2518C303.101 61.6442 299.668 65.1043 295.31 66.7031C292.71 67.6567 289.463 67.6567 282.97 67.6567H157.178C150.685 67.6567 147.438 67.6567 144.838 66.7031C140.48 65.1043 137.047 61.6442 135.461 57.2518C134.514 54.6316 134.514 51.3594 134.514 44.815C134.514 43.997 134.514 43.588 134.396 43.2605C134.198 42.7114 133.769 42.2789 133.224 42.079C132.899 41.9598 132.493 41.9598 131.682 41.9598H115.294C96.6214 41.9598 87.285 41.9598 80.1529 45.6224C73.8793 48.8441 68.7788 53.9848 65.5822 60.3077Z" fill="#161616"/>
</mask>
<g mask="url(#mask0)">
<rect x="61.9482" y="41.96" width="316.251" height="690.366" fill="#F5F6F7"/>
<path d="M61.9482 41.9598H378.2V113.79H61.9482V41.9598Z" fill="white"/>
<path fill-rule="evenodd" clip-rule="evenodd" d="M346.898 91.7172H349.143V93.9618H346.898V91.7172ZM352.136 91.7172H354.381V93.9618H352.136V91.7172ZM359.618 91.7172H357.374V93.9618H359.618V91.7172Z" fill="#2B2F36"/>
<path fill-rule="evenodd" clip-rule="evenodd" d="M364.988 63.696C364.988 64.5745 364.522 65.2858 363.677 65.2858V62.1062C364.522 62.1062 364.988 62.8175 364.988 63.696ZM363.24 60.7435V66.6485V66.6562C363.24 67.4089 362.654 68.0112 361.93 68.0112H344.891C344.167 68.0112 343.581 67.4089 343.581 66.6562V66.6485V60.7435C343.581 59.9909 344.167 59.3809 344.891 59.3809H361.93C362.654 59.3809 363.24 59.9909 363.24 60.7435ZM344.017 60.7442V66.6492C344.017 67.1502 344.409 67.5577 344.891 67.5577H361.93C362.412 67.5577 362.804 67.1502 362.804 66.6492V60.7442C362.804 60.2432 362.412 59.8358 361.93 59.8358H344.891C344.409 59.8358 344.017 60.2432 344.017 60.7442ZM344.454 60.7435V66.6485C344.454 66.8992 344.651 67.1027 344.891 67.1027H357.998V60.2893H344.891C344.651 60.2893 344.454 60.4928 344.454 60.7435Z" fill="#111111"/>
<path fill-rule="evenodd" clip-rule="evenodd" d="M333.301 59.3809C335.405 59.3809 337.531 60.1207 339.299 61.466L338.501 62.2576C337.044 61.1624 335.202 60.5605 333.301 60.5605C331.401 60.5605 329.562 61.1606 328.107 62.2523L327.311 61.4606C329.077 60.1185 331.199 59.3809 333.301 59.3809ZM333.303 62.2577C334.732 62.2577 336.147 62.7753 337.301 63.7176L336.443 64.655C335.556 63.9492 334.446 63.562 333.303 63.562C332.162 63.562 331.054 63.9477 330.167 64.651L329.309 63.7132C330.463 62.7733 331.876 62.2577 333.303 62.2577ZM333.304 65.1344C333.996 65.1344 334.702 65.3839 335.303 65.8399L333.304 68.0112L331.307 65.8368C331.908 65.3829 332.612 65.1344 333.304 65.1344Z" fill="#141F33"/>
<path d="M308.473 63.7125H309.234H309.995C310.502 63.7125 310.756 63.9751 310.756 64.5001V67.2567C310.756 67.7818 310.502 68.0443 309.995 68.0443H309.234C308.726 68.0443 308.473 67.7818 308.473 67.2567V64.5001C308.473 63.9751 308.726 63.7125 309.234 63.7125H308.473Z" fill="black"/>
<path d="M311.895 62.5312H312.656H313.417C313.925 62.5312 314.178 62.7938 314.178 63.3188V67.2568C314.178 67.7819 313.925 68.0444 313.417 68.0444H312.656C312.149 68.0444 311.895 67.7819 311.895 67.2568V63.3188C311.895 62.7938 312.149 62.5312 312.656 62.5312H311.895Z" fill="black"/>
<path d="M315.317 60.9561H316.079H316.84C317.347 60.9561 317.601 61.2186 317.601 61.7436V67.2568C317.601 67.7819 317.347 68.0444 316.84 68.0444H316.079C315.571 68.0444 315.317 67.7819 315.317 67.2568V61.7436C315.317 61.2186 315.571 60.9561 316.079 60.9561H315.317Z" fill="black"/>
<path d="M318.739 59.3809H319.5H320.262C320.769 59.3809 321.023 59.6434 321.023 60.1685V67.2568C321.023 67.7819 320.769 68.0444 320.262 68.0444H319.5C318.993 68.0444 318.739 67.7819 318.739 67.2568V60.1685C318.739 59.6434 318.993 59.3809 319.5 59.3809H318.739Z" fill="#DBDBDB"/>
<path d="M93.1833 57.9221C94.3272 57.9221 95.2005 58.3434 95.803 59.186C96.4056 60.0196 96.7069 61.1714 96.7069 62.6414C96.7069 64.1921 96.3881 65.4604 95.7507 66.4464C95.1132 67.4145 94.253 67.8985 93.1702 67.8985C91.3276 67.8985 90.2928 67.0246 90.0657 65.2767H91.559C91.7424 66.1641 92.2838 66.6078 93.1833 66.6078C93.7945 66.6078 94.2923 66.294 94.6765 65.6666C95.0346 65.066 95.2136 64.3265 95.2136 63.4481V63.3271H95.1481C94.8687 63.7215 94.5412 64.0128 94.1657 64.2011C93.7902 64.3803 93.371 64.47 92.9082 64.47C91.9825 64.47 91.2446 64.1607 90.6945 63.5422C90.153 62.9596 89.8823 62.1932 89.8823 61.2431C89.8823 60.275 90.1967 59.4818 90.8254 58.8633C91.4455 58.2358 92.2314 57.9221 93.1833 57.9221ZM93.2357 59.2263C92.6855 59.2263 92.2401 59.4145 91.8996 59.791C91.5677 60.1585 91.4018 60.6425 91.4018 61.2431C91.4018 61.8437 91.5677 62.3142 91.8996 62.6549C92.2227 63.0134 92.668 63.1927 93.2357 63.1927C93.7945 63.1927 94.2399 63.0134 94.5717 62.6549C94.8949 62.2784 95.0564 61.7899 95.0564 61.1893C95.0564 60.5798 94.8861 60.1003 94.5456 59.7507C94.205 59.4011 93.7683 59.2263 93.2357 59.2263Z" fill="#343434"/>
<path d="M99.0072 60.7591C99.3041 60.7591 99.5486 60.8532 99.7407 61.0414C99.9328 61.2386 100.029 61.4806 100.029 61.7675C100.029 62.0722 99.9285 62.3187 99.7276 62.507C99.5355 62.6952 99.2954 62.7893 99.0072 62.7893C98.7365 62.7893 98.4963 62.6907 98.2867 62.4935C98.0946 62.3053 97.9986 62.0633 97.9986 61.7675C97.9986 61.4717 98.0946 61.2297 98.2867 61.0414C98.4876 60.8532 98.7277 60.7591 99.0072 60.7591ZM99.0072 65.68C99.3041 65.68 99.5486 65.7742 99.7407 65.9624C99.9328 66.1596 100.029 66.4016 100.029 66.6884C100.029 66.9932 99.9285 67.2397 99.7276 67.4279C99.5355 67.6162 99.2954 67.7103 99.0072 67.7103C98.7365 67.7103 98.4963 67.6117 98.2867 67.4145C98.0946 67.2262 97.9986 66.9842 97.9986 66.6884C97.9986 66.3926 98.0946 66.1506 98.2867 65.9624C98.4876 65.7742 98.7277 65.68 99.0072 65.68Z" fill="#343434"/>
<path d="M105.64 58.1104H107.042V64.4027H108.43V65.6531H107.042V67.7103H105.588V65.6531H101.069V64.1607L105.64 58.1104ZM105.549 60.1003L102.313 64.4027H105.588V60.1003H105.549Z" fill="#343434"/>
<path d="M113.639 58.1104V67.7103H112.106V60.0061C111.539 60.535 110.827 60.9249 109.971 61.1759V59.6162C110.381 59.5087 110.831 59.3204 111.32 59.0515C111.783 58.7647 112.172 58.451 112.486 58.1104H113.639Z" fill="#343434"/>
<path fill-rule="evenodd" clip-rule="evenodd" d="M85.4313 87.4675C85.7279 87.1709 85.7279 86.6898 85.4313 86.3932C85.1346 86.0965 84.6536 86.0965 84.3569 86.3932L78.4531 92.2969C78.4514 92.2987 78.4496 92.3004 78.4478 92.3022C78.2954 92.4546 78.2213 92.6556 78.2255 92.8553C78.2294 93.0444 78.3036 93.2323 78.4478 93.3766C78.4496 93.3783 78.4513 93.38 78.453 93.3817L84.3569 99.2856C84.6536 99.5823 85.1346 99.5823 85.4313 99.2856C85.7279 98.9889 85.7279 98.5079 85.4313 98.2112L80.0594 92.8394L85.4313 87.4675Z" fill="#1F2329"/>
<rect x="33" y="699" width="375" height="32" fill="white"/>
<rect x="153" y="717" width="135" height="6" rx="3" fill="#E1E1E1"/>
</g>
<path d="M40 112.102C40 110.997 40.8954 110.102 42 110.102H43.7895V133.827H42C40.8954 133.827 40 132.931 40 131.827V112.102Z" fill="white"/>
<path fill-rule="evenodd" clip-rule="evenodd" d="M40 159.551C40 158.446 40.8954 157.551 42 157.551H43.7895V201.204H42C40.8954 201.204 40 200.309 40 199.204V159.551Z" fill="white"/>
<path d="M40 216.49C40 215.385 40.8954 214.49 42 214.49H43.7895V258.143H42C40.8954 258.143 40 257.247 40 256.143V216.49Z" fill="white"/>
<path fill-rule="evenodd" clip-rule="evenodd" d="M400 174.735C400 173.63 399.105 172.735 398 172.735H396.211V244.857H398C399.105 244.857 400 243.962 400 242.857V174.735Z" fill="white"/>
<path fill-rule="evenodd" clip-rule="evenodd" d="M262.631 60.7551C266.817 60.7551 270.21 57.3561 270.21 53.1632C270.21 48.9704 266.817 45.5714 262.631 45.5714C258.445 45.5714 255.052 48.9704 255.052 53.1632C255.052 57.3561 258.445 60.7551 262.631 60.7551Z" fill="#E3E3E3"/>
<path fill-rule="evenodd" clip-rule="evenodd" d="M262.631 57.9081C265.247 57.9081 267.368 55.7838 267.368 53.1632C267.368 50.5427 265.247 48.4183 262.631 48.4183C260.015 48.4183 257.894 50.5427 257.894 53.1632C257.894 55.7838 260.015 57.9081 262.631 57.9081Z" fill="white"/>
<path fill-rule="evenodd" clip-rule="evenodd" d="M199.158 53.1632C199.158 50.5427 201.282 48.4183 203.903 48.4183H236.097C238.718 48.4183 240.842 50.5427 240.842 53.1632C240.842 55.7838 238.718 57.9081 236.097 57.9081H203.903C201.282 57.9081 199.158 55.7838 199.158 53.1632Z" fill="#E3E3E3"/>
<path fill-rule="evenodd" clip-rule="evenodd" d="M201.052 53.1632C201.052 51.5909 202.326 50.3163 203.899 50.3163H236.1C237.672 50.3163 238.946 51.5909 238.946 53.1632C238.946 54.7355 237.672 56.0102 236.1 56.0102H203.899C202.326 56.0102 201.052 54.7355 201.052 53.1632Z" fill="white"/>
</g>
<defs>
<filter id="filter0_d" x="0" y="0" width="440" height="804.286" filterUnits="userSpaceOnUse" color-interpolation-filters="sRGB">
<feFlood flood-opacity="0" result="BackgroundImageFix"/>
<feColorMatrix in="SourceAlpha" type="matrix" values="0 0 0 0 0 0 0 0 0 0 0 0 0 0 0 0 0 0 127 0"/>
<feOffset dy="15"/>
<feGaussianBlur stdDeviation="20"/>
<feColorMatrix type="matrix" values="0 0 0 0 0 0 0 0 0 0 0 0 0 0 0 0 0 0 0.100333 0"/>
<feBlend mode="normal" in2="BackgroundImageFix" result="effect1_dropShadow"/>
<feBlend mode="normal" in="SourceGraphic" in2="effect1_dropShadow" result="shape"/>
</filter>
</defs>
</svg>
